<svg xmlns="http://www.w3.org/2000/svg" viewBox="0 0 24 24" fill="black" width="16px" height="16px">
  <path d="M12 0C5.4 0 0 5.4 0 12c0 5.3 3.4 9.8 8.1 11.4.6.1.9-.3.9-.7v-2.4c-3.3.7-4-1.6-4-1.6-.5-1.2-1.3-1.6-1.3-1.6-1-1.2.1-1.2.1-1.2 1.1.1 1.7 1.1 1.7 1.1 1 1.7 2.5 1.2 3.1.9.1-.8.4-1.2.7-1.5-2.4-.3-4.9-1.2-4.9-5.4 0-1.2.4-2.2 1-3-.1-.3-.4-1.5.1-3.1 0 0 1-.3 3.1 1.2.9-.3 1.9-.4 2.9-.4s2 .1 2.9.4c2.1-1.5 3.1-1.2 3.1-1.2.6 1.6.2 2.8.1 3.1.6.7 1 1.5 1 3.1 0 4.2-2.5 5.1-4.9 5.4.4.3.8.8.8 1.6v2.4c0 .4.3.8.9.7C20.6 21.8 24 17.3 24 12c0-6.6-5.4-12-12-12z"/>
</svg>
